<svg width="176" height="176" viewBox="0 0 176 176" fill="none" xmlns="http://www.w3.org/2000/svg">
<path d="M66 69.5C66 74.1944 69.8056 78 74.5 78H102.5C107.194 78 111 74.1944 111 69.5V106.5C111 101.806 107.194 98 102.5 98H74.5C69.8056 98 66 101.806 66 106.5V69.5Z" fill="#006464"/>
<path d="M111 41.4571C111 39.919 112.664 38.9566 113.997 39.7232L129.997 48.9232C130.617 49.28 131 49.9413 131 50.6571V125.343C131 126.059 130.617 126.72 129.997 127.077L113.997 136.277C112.664 137.043 111 136.081 111 134.543V41.4571Z" fill="#006464"/>
<path d="M46 50.6571C46 49.9413 46.3825 49.28 47.0031 48.9232L63.0031 39.7232C64.3364 38.9566 66 39.919 66 41.4571V134.543C66 136.081 64.3364 137.043 63.0031 136.277L47.0031 127.077C46.3825 126.72 46 126.059 46 125.343V50.6571Z" fill="#006464"/>
</svg>
