<svg width="85" height="100" viewBox="0 0 85 100" fill="none" xmlns="http://www.w3.org/2000/svg">
<path d="M20 31.5C20 36.1944 23.8056 40 28.5 40H56.5C61.1944 40 65 36.1944 65 31.5V68.5C65 63.8056 61.1944 60 56.5 60H28.5C23.8056 60 20 63.8056 20 68.5V31.5Z" fill="#006464"/>
<path d="M65 3.45705C65 1.91902 66.6636 0.956577 67.9969 1.72324L83.9969 10.9232C84.6175 11.28 85 11.9413 85 12.6571V87.3429C85 88.0587 84.6175 88.72 83.9969 89.0768L67.9969 98.2768C66.6636 99.0434 65 98.081 65 96.5429V3.45705Z" fill="#006464"/>
<path d="M0 12.6571C0 11.9413 0.382533 11.28 1.00306 10.9232L17.0031 1.72324C18.3364 0.956576 20 1.91902 20 3.45705V96.5429C20 98.081 18.3364 99.0434 17.0031 98.2768L1.00306 89.0768C0.382533 88.72 0 88.0587 0 87.3429V12.6571Z" fill="#006464"/>
</svg>
