<svg width="200" height="200" viewBox="0 0 200 200" fill="none" xmlns="http://www.w3.org/2000/svg">
<path d="M96 2.30942C98.4752 0.880356 101.525 0.880354 104 2.30942L182.603 47.6906C185.078 49.1197 186.603 51.7607 186.603 54.6188V145.381C186.603 148.239 185.078 150.88 182.603 152.309L104 197.691C101.525 199.12 98.4752 199.12 96 197.691L17.3975 152.309C14.9223 150.88 13.3975 148.239 13.3975 145.381V54.6188C13.3975 51.7607 14.9223 49.1197 17.3975 47.6906L96 2.30942Z" fill="#004646"/>
<path fill-rule="evenodd" clip-rule="evenodd" d="M185.531 149.381C186.221 148.185 186.603 146.81 186.603 145.381V54.6188C186.603 53.1898 186.221 51.815 185.531 50.6188L100 100L185.531 149.381Z" fill="#006464"/>
<path fill-rule="evenodd" clip-rule="evenodd" d="M104 2.30942C101.525 0.880359 98.4752 0.88036 96 2.30942L17.3975 47.6906C14.9223 49.1197 13.3975 51.7607 13.3975 54.6188V145.381C13.3975 146.81 13.7787 148.185 14.4693 149.381L185.531 50.6188C184.84 49.4227 183.84 48.4051 182.603 47.6906L104 2.30942Z" fill="#008686"/>
<path d="M78 81.5C78 86.1944 81.8056 90 86.5 90H114.5C119.194 90 123 86.1944 123 81.5V118.5C123 113.806 119.194 110 114.5 110H86.5C81.8056 110 78 113.806 78 118.5V81.5Z" fill="white"/>
<path d="M123 53.4571C123 51.919 124.664 50.9566 125.997 51.7232L141.997 60.9232C142.617 61.28 143 61.9413 143 62.6571V137.343C143 138.059 142.617 138.72 141.997 139.077L125.997 148.277C124.664 149.043 123 148.081 123 146.543V53.4571Z" fill="white"/>
<path d="M58 62.6571C58 61.9413 58.3825 61.28 59.0031 60.9232L75.0031 51.7232C76.3364 50.9566 78 51.919 78 53.4571V146.543C78 148.081 76.3364 149.043 75.0031 148.277L59.0031 139.077C58.3825 138.72 58 138.059 58 137.343V62.6571Z" fill="white"/>
</svg>
